<mxfile host="app.diagrams.net" modified="2025-10-01T12:00:00.000Z" agent="5.0 (Windows NT 10.0; Win64; x64) AppleWebKit/537.36 (KHTML, like Gecko) Chrome/118.0.0.0 Safari/537.36" etag="hash123" version="24.7.5" type="device">
  <diagram id="diagram1" name="Página 1">
    <mxGraphModel dx="1422" dy="794" grid="1" gridSize="10" guides="1" tooltips="1" connect="1" arrows="1" fold="1" page="1" pageScale="1" pageWidth="827" pageHeight="1169" math="0" shadow="0">
      <root>
        <mxCell id="0"/>
        <mxCell id="1" parent="0"/>
        <!-- Elemento de Inicio -->
        <mxCell id="start" value="Inicio" style="ellipse;whiteSpace=wrap;html=1;" vertex="1" parent="1">
          <mxGeometry x="320" y="40" width="80" height="40" as="geometry"/>
        </mxCell>
        <!-- Proceso 1 -->
        <mxCell id="process1" value="Proceso 1" style="rounded=1;whiteSpace=wrap;html=1;" vertex="1" parent="1">
          <mxGeometry x="300" y="120" width="120" height="60" as="geometry"/>
        </mxCell>
        <!-- Decisión -->
        <mxCell id="decision" value="¿Continuar?" style="rhombus;whiteSpace=wrap;html=1;" vertex="1" parent="1">
          <mxGeometry x="320" y="220" width="80" height="80" as="geometry"/>
        </mxCell>
        <!-- Proceso 2 -->
        <mxCell id="process2" value="Proceso 2" style="rounded=1;whiteSpace=wrap;html=1;" vertex="1" parent="1">
          <mxGeometry x="200" y="340" width="120" height="60" as="geometry"/>
        </mxCell>
        <!-- Proceso 3 -->
        <mxCell id="process3" value="Proceso 3" style="rounded=1;whiteSpace=wrap;html=1;" vertex="1" parent="1">
          <mxGeometry x="400" y="340" width="120" height="60" as="geometry"/>
        </mxCell>
        <!-- Elemento de Fin -->
        <mxCell id="end" value="Fin" style="ellipse;whiteSpace=wrap;html=1;" vertex="1" parent="1">
          <mxGeometry x="320" y="440" width="80" height="40" as="geometry"/>
        </mxCell>
        <!-- Conectores -->
        <mxCell id="connector1" value="" style="edgeStyle=orthogonalEdgeStyle;rounded=0;orthogonalLoop=1;jettySize=auto;html=1;" edge="1" parent="1" source="start" target="process1">
          <mxGeometry relative="1" as="geometry"/>
        </mxCell>
        <mxCell id="connector2" value="" style="edgeStyle=orthogonalEdgeStyle;rounded=0;orthogonalLoop=1;jettySize=auto;html=1;" edge="1" parent="1" source="process1" target="decision">
          <mxGeometry relative="1" as="geometry"/>
        </mxCell>
        <mxCell id="connector3" value="Sí" style="edgeStyle=orthogonalEdgeStyle;rounded=0;orthogonalLoop=1;jettySize=auto;html=1;" edge="1" parent="1" source="decision" target="process2">
          <mxGeometry relative="1" as="geometry"/>
        </mxCell>
        <mxCell id="connector4" value="No" style="edgeStyle=orthogonalEdgeStyle;rounded=0;orthogonalLoop=1;jettySize=auto;html=1;" edge="1" parent="1" source="decision" target="process3">
          <mxGeometry relative="1" as="geometry"/>
        </mxCell>
        <mxCell id="connector5" value="" style="edgeStyle=orthogonalEdgeStyle;rounded=0;orthogonalLoop=1;jettySize=auto;html=1;" edge="1" parent="1" source="process2" target="end">
          <mxGeometry relative="1" as="geometry"/>
        </mxCell>
        <mxCell id="connector6" value="" style="edgeStyle=orthogonalEdgeStyle;rounded=0;orthogonalLoop=1;jettySize=auto;html=1;" edge="1" parent="1" source="process3" target="end">
          <mxGeometry relative="1" as="geometry"/>
        </mxCell>
      </root>
    </mxGraphModel>
  </diagram>
</mxfile>